<svg width="30" height="30" viewBox="0 0 30 30" fill="none" xmlns="http://www.w3.org/2000/svg">
<path fill-rule="evenodd" clip-rule="evenodd" d="M26.607 12H30V18H26.6085C26.247 19.3965 25.65 20.697 24.8475 21.846L27 24L24 27L21.8475 24.846C20.6955 25.6485 19.398 26.247 18 26.607V30H12V26.607C10.6035 26.247 9.3045 25.6485 8.154 24.846L6 27L3 24L5.154 21.846C4.3515 20.6985 3.753 19.398 3.393 18H0V12H3.393C3.753 10.602 4.35 9.303 5.154 8.154L3 6L6 3L8.154 5.154C9.303 4.35 10.602 3.753 12 3.393V0H18V3.3915C19.398 3.753 20.6955 4.35 21.8475 5.1525L24 2.9985L27 5.9985L24.846 8.154C25.6485 9.303 26.247 10.6035 26.607 12ZM15 21C18.3137 21 21 18.3137 21 15C21 11.6863 18.3137 9 15 9C11.6863 9 9 11.6863 9 15C9 18.3137 11.6863 21 15 21Z" fill="#ABABAB"/>
</svg>
