<svg width="87" height="66" viewBox="0 0 87 66" fill="none" xmlns="http://www.w3.org/2000/svg">
<path d="M73.613 5.485C68.1028 2.92817 62.137 1.07241 55.9225 0.000189693C55.868 -0.00154484 55.8138 0.00863333 55.7637 0.0300088C55.7136 0.0513842 55.6688 0.0834378 55.6325 0.123908C54.8868 1.4848 54.0167 3.25809 53.4367 4.61898C46.8452 3.62924 40.1419 3.62924 33.5505 4.61898C32.9704 3.21685 32.1004 1.4848 31.3133 0.123908C31.2718 0.0414298 31.1475 0.000189693 31.0232 0.000189693C24.8088 1.07241 18.8843 2.92817 13.3328 5.485C13.2913 5.485 13.2499 5.52624 13.2085 5.56748C1.93959 22.3518 -1.16764 38.6826 0.365261 54.8483C0.365261 54.9308 0.406691 55.0133 0.48955 55.0545C7.9469 60.4981 15.1142 63.7972 22.1987 65.9829C22.323 66.0242 22.4473 65.9829 22.4887 65.9004C24.1459 63.6323 25.6374 61.2404 26.9217 58.7248C27.0046 58.5599 26.9217 58.3949 26.756 58.3537C24.3945 57.4464 22.1573 56.3742 19.9615 55.137C19.7958 55.0545 19.7958 54.8071 19.9201 54.6834C20.3758 54.3535 20.8315 53.9823 21.2873 53.6524C21.3701 53.5699 21.4944 53.5699 21.5773 53.6112C35.8291 60.0857 51.1995 60.0857 65.2856 53.6112C65.3685 53.5699 65.4928 53.5699 65.5756 53.6524C66.0313 54.0235 66.4871 54.3535 66.9428 54.7246C67.1085 54.8483 67.1085 55.0958 66.9014 55.1782C64.747 56.4567 62.4684 57.4876 60.1069 58.3949C59.9412 58.4361 59.8997 58.6423 59.9412 58.7661C61.2669 61.2816 62.7584 63.6735 64.3742 65.9417C64.4985 65.9829 64.6227 66.0242 64.747 65.9829C71.8729 63.7972 79.0403 60.4981 86.4976 55.0545C86.5805 55.0133 86.6219 54.9308 86.6219 54.8483C88.4448 36.167 83.5975 19.96 73.7787 5.56748C73.7373 5.52624 73.6958 5.485 73.613 5.485ZM29.076 44.9922C24.8088 44.9922 21.2458 41.0744 21.2458 36.2495C21.2458 31.4245 24.7259 27.5067 29.076 27.5067C33.4676 27.5067 36.9477 31.4657 36.9063 36.2495C36.9063 41.0744 33.4262 44.9922 29.076 44.9922ZM57.9526 44.9922C53.6853 44.9922 50.1223 41.0744 50.1223 36.2495C50.1223 31.4245 53.6024 27.5067 57.9526 27.5067C62.3441 27.5067 65.8242 31.4657 65.7828 36.2495C65.7828 41.0744 62.3441 44.9922 57.9526 44.9922Z" fill="white"/>
</svg>
