<svg width="30" height="30" viewBox="0 0 30 30" fill="none" xmlns="http://www.w3.org/2000/svg">
<path d="M21.6667 1.66797C19.01 1.66797 16.55 3.06297 15 5.13464C13.45 3.06297 10.99 1.66797 8.33333 1.66797C3.73833 1.66797 0 5.40631 0 10.0013C0 19.153 13.54 27.7213 14.1183 28.0813C14.3883 28.2497 14.695 28.3347 15 28.3347C15.305 28.3347 15.6117 28.2497 15.8817 28.0813C16.46 27.7213 30 19.153 30 10.0013C30 5.40631 26.2617 1.66797 21.6667 1.66797Z" fill="url(#paint0_linear_931_533)"/>
<path d="M20.8897 20.4611C19.6971 22.7391 16.7717 23.2262 16.6459 23.2464C16.6288 23.2499 16.6085 23.2499 16.5915 23.2499C16.5712 23.2499 16.5507 23.2464 16.5304 23.2432C16.5168 23.2432 16.5031 23.2397 16.4896 23.233C16.4658 23.2297 16.442 23.2196 16.4217 23.2029C16.4047 23.1927 16.3877 23.1828 16.3741 23.1691C16.3606 23.1624 16.347 23.1524 16.3368 23.139C16.3333 23.1355 16.33 23.1323 16.33 23.1288C16.2926 23.0818 16.2689 23.0281 16.2586 22.9743C16.2552 22.9709 16.2552 22.9709 16.2552 22.9676C16.2517 22.9508 16.2517 22.9339 16.2517 22.9173C16.2517 22.8972 16.2552 22.8769 16.2585 22.8568C16.2585 22.8434 16.2653 22.8267 16.2687 22.8098C16.2722 22.8031 16.2722 22.7997 16.2722 22.7964C16.2824 22.7795 16.2892 22.7628 16.2994 22.7494C16.3096 22.7325 16.3197 22.7158 16.3334 22.7024C16.3402 22.6888 16.3538 22.6753 16.3674 22.6654C16.3708 22.6619 16.3742 22.6587 16.3777 22.6552C18.6949 20.6126 18.1581 18.7009 18.1343 18.6201C18.124 18.5966 18.1207 18.5698 18.1173 18.5463C18.0086 16.8596 16.6698 14.9781 15.8272 13.9536C15.6674 15.5461 14.6719 17.9416 14.4204 18.5229C14.3559 18.6741 14.1894 18.7546 14.0331 18.721C13.8701 18.6841 13.7612 18.5396 13.7681 18.3783C13.7885 17.8509 13.357 17.1487 12.9764 16.6481C12.8066 17.0714 12.4803 17.7266 11.8619 18.7648C11.5867 19.2284 11.427 19.7023 11.3896 20.1658C11.2572 21.8356 12.3444 22.4504 12.6162 22.5747C12.6535 22.5916 12.674 22.5983 12.6773 22.5983C12.7283 22.6184 12.7724 22.6453 12.8065 22.6856C12.82 22.6958 12.8302 22.7092 12.8405 22.7226C12.8575 22.7527 12.8745 22.783 12.8813 22.8133C12.9016 22.8636 12.905 22.9175 12.8948 22.9712C12.8914 22.9913 12.8846 23.0115 12.8778 23.0316C12.8405 23.1324 12.7589 23.2063 12.6604 23.2331C12.6434 23.2398 12.6264 23.2433 12.6095 23.2465C12.5925 23.25 12.5755 23.25 12.5585 23.25C12.5211 23.25 12.4804 23.2433 12.443 23.2299H12.4362C10.6422 22.5411 9.46324 21.4962 8.93667 20.1255C8.12806 18.0255 9.09639 15.7611 9.54821 14.8841C9.77584 14.4474 10.0681 14.0039 10.469 13.4864C12.6809 10.634 13.2857 7.43211 13.2925 7.40185C13.3128 7.27754 13.4046 7.17676 13.5269 7.13983C13.6458 7.10291 13.7783 7.13642 13.8701 7.2238C15.7626 9.13884 17.2406 10.6709 18.2566 11.7797C19.1535 12.7574 19.8772 13.7922 20.4073 14.864C21.508 17.0846 21.6711 18.9658 20.8897 20.4611Z" fill="white"/>
<defs>
<linearGradient id="paint0_linear_931_533" x1="-34" y1="55" x2="31.7052" y2="-8.32391" gradientUnits="userSpaceOnUse">
<stop stop-color="#B1C4EA"/>
<stop offset="1" stop-color="#517CD1"/>
</linearGradient>
</defs>
</svg>
