<svg width="100" height="80" viewBox="0 0 100 80" fill="none" xmlns="http://www.w3.org/2000/svg">
<mask id="mask0_931_444" style="mask-type:alpha" maskUnits="userSpaceOnUse" x="0" y="0" width="100" height="80">
<path d="M46.3986 77.787L9.54765 72.6806L2.67997 29.2762L7.48176 26.0989L35.6783 8.2832L9.88266 24.8506C8.39373 26.2502 5.39355 30.1273 5.30421 34.4393C5.21487 38.7514 6.38368 43.6876 6.97926 45.6167C7.50037 48.586 8.81063 55.5004 9.88266 59.404C11.2227 64.2834 13.2327 64.8508 18.8162 66.6097C21.6108 67.49 28.364 63.8086 36.125 66.1558C40.8151 67.5742 44.8352 62.4111 45.6169 56.7373C48.0736 56.2834 47.0239 62.899 49.5253 64.8508C52.6521 67.2905 55.7788 62.0706 60.8039 59.6876C65.8291 57.3047 64.0424 60.0281 68.6208 59.2337C72.2836 58.5983 73.497 57.3047 73.6459 56.7373L78.6152 53.5032C69.3653 61.0494 50.5974 76.3459 49.5253 77.1629C48.4533 77.9799 46.9942 77.9194 46.3986 77.787Z" fill="white"/>
<path d="M46.3986 77.787L9.54765 72.6806L2.67997 29.2762L7.48176 26.0989L35.6783 8.2832L9.88266 24.8506C8.39373 26.2502 5.39355 30.1273 5.30421 34.4393C5.21487 38.7514 6.38368 43.6876 6.97926 45.6167C7.50037 48.586 8.81063 55.5004 9.88266 59.404C11.2227 64.2834 13.2327 64.8508 18.8162 66.6097C21.6108 67.49 28.364 63.8086 36.125 66.1558C40.8151 67.5742 44.8352 62.4111 45.6169 56.7373C48.0736 56.2834 47.0239 62.899 49.5253 64.8508C52.6521 67.2905 55.7788 62.0706 60.8039 59.6876C65.8291 57.3047 64.0424 60.0281 68.6208 59.2337C72.2836 58.5983 73.497 57.3047 73.6459 56.7373L78.6152 53.5032C69.3653 61.0494 50.5974 76.3459 49.5253 77.1629C48.4533 77.9799 46.9942 77.9194 46.3986 77.787Z" fill="#003DA2" fill-opacity="0.3"/>
<path d="M6.03061 29.6738L39.9223 32.7376C40.6482 32.5863 42.178 32.8397 42.4907 35.0638C42.8034 37.288 45.2638 55.3192 46.455 64.0569L49.4142 65.1349L53.6576 66.9505L56.5052 64.0569L61.307 60.5391L62.1445 59.2341C60.8603 60.1987 57.7671 62.0937 55.6677 61.9576C53.0435 61.7873 48.5767 62.8086 48.0183 60.142C47.5717 58.0086 46.5666 51.0072 46.12 47.7731C45.301 43.8582 43.9089 35.5404 44.8916 33.5887C45.7931 31.7981 52.2143 26.5601 56.0856 23.5603C56.4497 23.2851 56.7797 23.031 57.0636 22.8085C56.7622 23.0382 56.4342 23.2902 56.0856 23.5603C53.6328 25.4145 49.628 28.2299 47.6833 28.8227C44.8916 29.6738 39.0848 31.3192 35.5114 30.0709C31.9379 28.8227 31.8263 25.7021 26.857 25.7589C21.8877 25.8156 16.025 28.3121 13.9591 26.5532C12.3064 25.1461 13.7172 22.7517 14.6292 21.7305L4.69057 27.8582L6.03061 29.6738Z" fill="white"/>
<path d="M6.03061 29.6738L39.9223 32.7376C40.6482 32.5863 42.178 32.8397 42.4907 35.0638C42.8034 37.288 45.2638 55.3192 46.455 64.0569L49.4142 65.1349L53.6576 66.9505L56.5052 64.0569L61.307 60.5391L62.1445 59.2341C60.8603 60.1987 57.7671 62.0937 55.6677 61.9576C53.0435 61.7873 48.5767 62.8086 48.0183 60.142C47.5717 58.0086 46.5666 51.0072 46.12 47.7731C45.301 43.8582 43.9089 35.5404 44.8916 33.5887C45.7931 31.7981 52.2143 26.5601 56.0856 23.5603C56.4497 23.2851 56.7797 23.031 57.0636 22.8085C56.7622 23.0382 56.4342 23.2902 56.0856 23.5603C53.6328 25.4145 49.628 28.2299 47.6833 28.8227C44.8916 29.6738 39.0848 31.3192 35.5114 30.0709C31.9379 28.8227 31.8263 25.7021 26.857 25.7589C21.8877 25.8156 16.025 28.3121 13.9591 26.5532C12.3064 25.1461 13.7172 22.7517 14.6292 21.7305L4.69057 27.8582L6.03061 29.6738Z" fill="#003DA2" fill-opacity="0.3"/>
<path d="M9.26884 19.4611C12.3509 19.8696 18.3141 22.7607 21.1616 22.1277C22.9484 21.7306 24.7351 21.3334 25.9076 20.3121C26.8481 19.493 27.9363 18.4209 28.5877 17.4752C28.0665 17.9102 26.3878 18.9845 23.8417 19.8015C21.2956 20.6185 12.5073 17.7589 8.43132 16.227L12.0047 13.9575L22.7809 16.6809L25.7401 14.6951L31.6027 16.0568L34.2828 13.9575L29.0343 12.3688L31.0444 10.8937L21.8317 8.00003C20.9383 8.41611 18.7719 9.41847 17.2532 10.0993C15.7345 10.7802 15.1687 10.9882 15.0757 11.0071C15.1873 11.0071 15.7792 10.9504 17.2532 10.7234C18.7272 10.4965 21.6269 10.7424 22.8925 10.8937L29.0343 12.3688L25.7401 14.6951L15.634 11.9717L12.0047 13.9575L6.4771 12.7093L9.82719 10.5532L5.24874 9.24826L12.0047 5.84399L22.7809 8.00003C24.4187 8.41611 28.5207 9.60003 31.8261 11.0071C35.1315 12.4142 36.7768 9.81564 37.1862 8.34046L40.4805 0C40.2385 0.51064 39.2409 2.39433 37.1862 5.84399C35.1315 9.29365 28.1782 7.28135 24.9584 5.84399L14.7406 3.29079L11.4464 5.21988C10.8136 5.27661 9.21301 5.26527 7.87297 4.76597C6.53294 4.26668 6.94239 2.4019 7.31462 1.53192C7.12851 1.92908 6.45477 3.13193 5.24874 4.76597C4.04271 6.40002 1.24725 7.60286 0.000274658 8.00003L4.74623 9.24826L1.78699 11.5178L6.4771 12.7093L3.40619 14.9788L8.43132 16.227L4.46705 18.7802C4.78345 18.8369 6.18676 19.0525 9.26884 19.4611Z" fill="white"/>
<path d="M9.26884 19.4611C12.3509 19.8696 18.3141 22.7607 21.1616 22.1277C22.9484 21.7306 24.7351 21.3334 25.9076 20.3121C26.8481 19.493 27.9363 18.4209 28.5877 17.4752C28.0665 17.9102 26.3878 18.9845 23.8417 19.8015C21.2956 20.6185 12.5073 17.7589 8.43132 16.227L12.0047 13.9575L22.7809 16.6809L25.7401 14.6951L31.6027 16.0568L34.2828 13.9575L29.0343 12.3688L31.0444 10.8937L21.8317 8.00003C20.9383 8.41611 18.7719 9.41847 17.2532 10.0993C15.7345 10.7802 15.1687 10.9882 15.0757 11.0071C15.1873 11.0071 15.7792 10.9504 17.2532 10.7234C18.7272 10.4965 21.6269 10.7424 22.8925 10.8937L29.0343 12.3688L25.7401 14.6951L15.634 11.9717L12.0047 13.9575L6.4771 12.7093L9.82719 10.5532L5.24874 9.24826L12.0047 5.84399L22.7809 8.00003C24.4187 8.41611 28.5207 9.60003 31.8261 11.0071C35.1315 12.4142 36.7768 9.81564 37.1862 8.34046L40.4805 0C40.2385 0.51064 39.2409 2.39433 37.1862 5.84399C35.1315 9.29365 28.1782 7.28135 24.9584 5.84399L14.7406 3.29079L11.4464 5.21988C10.8136 5.27661 9.21301 5.26527 7.87297 4.76597C6.53294 4.26668 6.94239 2.4019 7.31462 1.53192C7.12851 1.92908 6.45477 3.13193 5.24874 4.76597C4.04271 6.40002 1.24725 7.60286 0.000274658 8.00003L4.74623 9.24826L1.78699 11.5178L6.4771 12.7093L3.40619 14.9788L8.43132 16.227L4.46705 18.7802C4.78345 18.8369 6.18676 19.0525 9.26884 19.4611Z" fill="#003DA2" fill-opacity="0.3"/>
<path d="M54.4388 22.6954L43.4952 23.6032L47.0687 20.7663C49.2834 20.7852 54.4053 20.8117 57.1747 20.7663C59.9442 20.7209 62.3488 19.4235 63.2049 18.7805C62.7024 19.2155 61.3847 20.3351 60.134 21.3337C58.8833 22.3323 55.8161 22.6576 54.4388 22.6954Z" fill="white"/>
<path d="M54.4388 22.6954L43.4952 23.6032L47.0687 20.7663C49.2834 20.7852 54.4053 20.8117 57.1747 20.7663C59.9442 20.7209 62.3488 19.4235 63.2049 18.7805C62.7024 19.2155 61.3847 20.3351 60.134 21.3337C58.8833 22.3323 55.8161 22.6576 54.4388 22.6954Z" fill="#003DA2" fill-opacity="0.3"/>
<path fill-rule="evenodd" clip-rule="evenodd" d="M68.5092 19.6883L62.9257 20.1422L65.9408 18.0996L56.1697 18.7805L59.0731 16.6812L54.048 17.1351L57.3981 14.8656L62.5349 14.5819C62.9257 14.2982 63.7856 13.5946 64.0983 13.05C64.3001 12.6983 63.6284 12.2016 62.8766 11.7919C62.1441 11.5615 61.7946 11.353 61.6974 11.2344C62.0271 11.3684 62.4639 11.567 62.8766 11.7919C63.5455 12.0023 64.5337 12.2309 65.9408 12.4258C68.8889 12.8344 74.2788 12.0287 76.6052 11.5748L79.5645 9.58896L90.2289 8.96484C89.7636 9.36201 89.1681 10.1904 90.5081 10.3266C91.8481 10.4627 97.3944 9.47548 100 8.96484C99.2555 9.13506 96.7169 9.70243 92.5181 10.6102C88.3194 11.518 86.6369 13.6363 86.3205 14.5819L80.5695 15.0925L77.5544 17.1351L71.6918 17.6457L68.5092 19.6883ZM71.6918 17.6457L65.9408 18.0996C66.3875 17.5133 67.7722 16.2613 69.7376 15.9436C71.7029 15.6259 73.2365 15.2438 73.7577 15.0925C71.394 15.3762 66.5215 15.9436 65.9408 15.9436C65.3601 15.9436 61.1204 16.4353 59.0731 16.6812L62.5349 14.5819L73.311 13.6741L76.6052 11.5748L88.9447 9.92939C88.7028 10.0618 87.7387 10.5081 85.818 11.2344C83.8973 11.9606 81.5187 14.1091 80.5695 15.0925L75.5444 15.3762L71.6918 17.6457Z" fill="white"/>
<path fill-rule="evenodd" clip-rule="evenodd" d="M68.5092 19.6883L62.9257 20.1422L65.9408 18.0996L56.1697 18.7805L59.0731 16.6812L54.048 17.1351L57.3981 14.8656L62.5349 14.5819C62.9257 14.2982 63.7856 13.5946 64.0983 13.05C64.3001 12.6983 63.6284 12.2016 62.8766 11.7919C62.1441 11.5615 61.7946 11.353 61.6974 11.2344C62.0271 11.3684 62.4639 11.567 62.8766 11.7919C63.5455 12.0023 64.5337 12.2309 65.9408 12.4258C68.8889 12.8344 74.2788 12.0287 76.6052 11.5748L79.5645 9.58896L90.2289 8.96484C89.7636 9.36201 89.1681 10.1904 90.5081 10.3266C91.8481 10.4627 97.3944 9.47548 100 8.96484C99.2555 9.13506 96.7169 9.70243 92.5181 10.6102C88.3194 11.518 86.6369 13.6363 86.3205 14.5819L80.5695 15.0925L77.5544 17.1351L71.6918 17.6457L68.5092 19.6883ZM71.6918 17.6457L65.9408 18.0996C66.3875 17.5133 67.7722 16.2613 69.7376 15.9436C71.7029 15.6259 73.2365 15.2438 73.7577 15.0925C71.394 15.3762 66.5215 15.9436 65.9408 15.9436C65.3601 15.9436 61.1204 16.4353 59.0731 16.6812L62.5349 14.5819L73.311 13.6741L76.6052 11.5748L88.9447 9.92939C88.7028 10.0618 87.7387 10.5081 85.818 11.2344C83.8973 11.9606 81.5187 14.1091 80.5695 15.0925L75.5444 15.3762L71.6918 17.6457Z" fill="#003DA2" fill-opacity="0.3"/>
<path d="M55.8346 71.8862L57.0071 75.177L61.0831 74.4962L61.4954 74.0772C61.5868 74.0034 61.6563 73.9275 61.6973 73.872L61.4954 74.0772C61.3376 74.2046 61.1143 74.3259 60.8597 74.3259C60.4577 74.3259 58.9055 74.0233 58.1797 73.872C57.7144 73.7775 56.8285 73.4181 57.0071 72.7373C57.1858 72.0564 57.4166 70.9406 57.5097 70.4678L55.8346 71.8862Z" fill="white"/>
<path d="M55.8346 71.8862L57.0071 75.177L61.0831 74.4962L61.4954 74.0772C61.5868 74.0034 61.6563 73.9275 61.6973 73.872L61.4954 74.0772C61.3376 74.2046 61.1143 74.3259 60.8597 74.3259C60.4577 74.3259 58.9055 74.0233 58.1797 73.872C57.7144 73.7775 56.8285 73.4181 57.0071 72.7373C57.1858 72.0564 57.4166 70.9406 57.5097 70.4678L55.8346 71.8862Z" fill="#003DA2" fill-opacity="0.3"/>
<path d="M51.2547 79.9996L50.138 76.9357V76.3683L52.9856 73.9854C53.0042 74.1177 53.1084 74.5527 53.3764 75.2336C53.7115 76.0846 52.7623 76.3116 52.2598 77.1059C51.7572 77.9003 53.4323 78.4676 54.214 78.3542C54.8393 78.2634 54.9584 77.1438 54.9398 76.5953L55.7773 78.8081L55.2748 79.4322L51.2547 79.9996Z" fill="white"/>
<path d="M51.2547 79.9996L50.138 76.9357V76.3683L52.9856 73.9854C53.0042 74.1177 53.1084 74.5527 53.3764 75.2336C53.7115 76.0846 52.7623 76.3116 52.2598 77.1059C51.7572 77.9003 53.4323 78.4676 54.214 78.3542C54.8393 78.2634 54.9584 77.1438 54.9398 76.5953L55.7773 78.8081L55.2748 79.4322L51.2547 79.9996Z" fill="#003DA2" fill-opacity="0.3"/>
<path d="M62.9262 70.4115L61.7537 67.3477C62.1445 67.9718 62.9709 69.3108 63.1496 69.6739C63.3282 70.037 65.5319 70.0143 66.6113 69.9576L62.9262 70.4115Z" fill="white"/>
<path d="M62.9262 70.4115L61.7537 67.3477C62.1445 67.9718 62.9709 69.3108 63.1496 69.6739C63.3282 70.037 65.5319 70.0143 66.6113 69.9576L62.9262 70.4115Z" fill="#003DA2" fill-opacity="0.3"/>
<path d="M32.8867 76.937V75.9157V74.9512C32.6075 75.2727 31.7142 75.9157 30.3742 75.9157H28.1966L32.0492 77.3909L32.8867 76.937Z" fill="white"/>
<path d="M32.8867 76.937V75.9157V74.9512C32.6075 75.2727 31.7142 75.9157 30.3742 75.9157H28.1966L32.0492 77.3909L32.8867 76.937Z" fill="#003DA2" fill-opacity="0.3"/>
<path d="M30.6522 45.3905C31.1882 44.5735 33.1462 45.3905 33.8906 45.1068L32.6623 38.4118L29.703 40.0572L28.2513 34.043L21.6628 39.0359L23.7845 43.1778C24.0451 43.0643 24.9459 42.6671 26.4646 41.9863C27.9833 41.3054 29.1074 41.7026 29.4797 41.9863C30.038 42.077 30.4289 43.8586 30.6522 45.3905Z" fill="white"/>
<path d="M30.6522 45.3905C31.1882 44.5735 33.1462 45.3905 33.8906 45.1068L32.6623 38.4118L29.703 40.0572L28.2513 34.043L21.6628 39.0359L23.7845 43.1778C24.0451 43.0643 24.9459 42.6671 26.4646 41.9863C27.9833 41.3054 29.1074 41.7026 29.4797 41.9863C30.038 42.077 30.4289 43.8586 30.6522 45.3905Z" fill="#003DA2" fill-opacity="0.3"/>
<path d="M9.82783 32.3975C8.22723 33.7024 4.67986 36.2897 3.29516 36.1989C3.5185 36.789 4.3188 41.5322 4.69103 43.0074L11.3354 38.9223L12.3962 44.6528L15.3555 43.0074L14.5738 36.9932L11.3354 38.9223C11.3354 38.2982 10.2298 33.0783 9.82783 32.3975Z" fill="white"/>
<path d="M9.82783 32.3975C8.22723 33.7024 4.67986 36.2897 3.29516 36.1989C3.5185 36.789 4.3188 41.5322 4.69103 43.0074L11.3354 38.9223L12.3962 44.6528L15.3555 43.0074L14.5738 36.9932L11.3354 38.9223C11.3354 38.2982 10.2298 33.0783 9.82783 32.3975Z" fill="#003DA2" fill-opacity="0.3"/>
<path d="M56.0588 33.4745C55.7908 28.9355 55.0724 26.7794 54.5513 24.7369L60.4698 20.9922C60.1348 21.5596 59.3643 23.3638 58.9623 26.0418C58.4597 29.3894 62.0332 49.3043 62.424 53.1625C62.7367 56.249 64.006 60.0089 64.6016 61.503L56.4497 63.9427C56.6544 63.4888 57.2202 62.0817 57.8456 60.0845C58.4709 58.0873 57.585 49.5313 57.0639 45.5029C56.9708 44.406 56.3269 38.0135 56.0588 33.4745Z" fill="white"/>
<path d="M56.0588 33.4745C55.7908 28.9355 55.0724 26.7794 54.5513 24.7369L60.4698 20.9922C60.1348 21.5596 59.3643 23.3638 58.9623 26.0418C58.4597 29.3894 62.0332 49.3043 62.424 53.1625C62.7367 56.249 64.006 60.0089 64.6016 61.503L56.4497 63.9427C56.6544 63.4888 57.2202 62.0817 57.8456 60.0845C58.4709 58.0873 57.585 49.5313 57.0639 45.5029C56.9708 44.406 56.3269 38.0135 56.0588 33.4745Z" fill="#003DA2" fill-opacity="0.3"/>
<path d="M69.2909 55.0927C69.4695 57.9068 68.2858 59.4426 67.6717 59.8586L68.7325 61.2203C71.394 59.1778 76.1809 55.3196 74.0368 56.2274C71.3568 57.3622 69.1272 42.3705 68.7325 40.511C68.1184 37.6174 66.9086 24.9649 66.2758 18.0996L63.8191 19.6315L67.0017 37.6174C67.6903 42.2699 69.1122 52.2785 69.2909 55.0927Z" fill="white"/>
<path d="M69.2909 55.0927C69.4695 57.9068 68.2858 59.4426 67.6717 59.8586L68.7325 61.2203C71.394 59.1778 76.1809 55.3196 74.0368 56.2274C71.3568 57.3622 69.1272 42.3705 68.7325 40.511C68.1184 37.6174 66.9086 24.9649 66.2758 18.0996L63.8191 19.6315L67.0017 37.6174C67.6903 42.2699 69.1122 52.2785 69.2909 55.0927Z" fill="#003DA2" fill-opacity="0.3"/>
<path d="M78.3359 50.6108L73.8692 14.4121C73.9808 17.6273 74.26 24.9426 74.4833 28.4831C74.7625 32.9086 76.6051 40.8519 77.0517 42.6108C77.4091 44.0179 78.0568 48.5304 78.3359 50.6108Z" fill="white"/>
<path d="M78.3359 50.6108L73.8692 14.4121C73.9808 17.6273 74.26 24.9426 74.4833 28.4831C74.7625 32.9086 76.6051 40.8519 77.0517 42.6108C77.4091 44.0179 78.0568 48.5304 78.3359 50.6108Z" fill="#003DA2" fill-opacity="0.3"/>
<path d="M44.1078 22.5815L25.6824 20.9929L27.7482 18.8936L45.8945 21.1063L44.1078 22.5815Z" fill="white"/>
<path d="M44.1078 22.5815L25.6824 20.9929L27.7482 18.8936L45.8945 21.1063L44.1078 22.5815Z" fill="#003DA2" fill-opacity="0.3"/>
<path d="M40.0331 15.9992C36.951 15.6815 34.0402 15.4697 32.5512 15.602L34.3938 14.1836L55.7227 15.3183L53.8801 16.5098C52.7448 16.6233 51.1442 16.8049 49.5808 16.8503C47.6266 16.907 43.8857 16.3964 40.0331 15.9992Z" fill="white"/>
<path d="M40.0331 15.9992C36.951 15.6815 34.0402 15.4697 32.5512 15.602L34.3938 14.1836L55.7227 15.3183L53.8801 16.5098C52.7448 16.6233 51.1442 16.8049 49.5808 16.8503C47.6266 16.907 43.8857 16.3964 40.0331 15.9992Z" fill="#003DA2" fill-opacity="0.3"/>
<path d="M66.332 10.497L37.7446 8.85156L37.0188 9.98632L35.6788 11.0643C36.7024 11.3102 36.4046 11.2686 37.7446 11.4048C39.4197 11.575 40.9272 10.8941 43.8306 10.1565C46.734 9.41894 55.1651 10.497 57.4543 10.497H66.332Z" fill="white"/>
<path d="M66.332 10.497L37.7446 8.85156L37.0188 9.98632L35.6788 11.0643C36.7024 11.3102 36.4046 11.2686 37.7446 11.4048C39.4197 11.575 40.9272 10.8941 43.8306 10.1565C46.734 9.41894 55.1651 10.497 57.4543 10.497H66.332Z" fill="#003DA2" fill-opacity="0.3"/>
</mask>
<g mask="url(#mask0_931_444)">
<rect x="-2.21094" y="-1.61621" width="99.6621" height="88.7882" fill="url(#paint0_linear_931_444)"/>
<rect x="-28" y="7" width="99.6621" height="88.7882" fill="url(#paint1_linear_931_444)"/>
<rect x="-28" y="7" width="99.6621" height="88.7882" fill="url(#paint2_linear_931_444)"/>
</g>
<defs>
<linearGradient id="paint0_linear_931_444" x1="-12.6962" y1="74.5457" x2="92.2537" y2="-8.5319" gradientUnits="userSpaceOnUse">
<stop stop-color="white"/>
<stop offset="1" stop-color="#3365C9"/>
</linearGradient>
<linearGradient id="paint1_linear_931_444" x1="-38.4853" y1="83.1619" x2="66.4647" y2="0.0843127" gradientUnits="userSpaceOnUse">
<stop stop-color="white"/>
<stop offset="1" stop-color="#3365C9"/>
</linearGradient>
<linearGradient id="paint2_linear_931_444" x1="-38.4853" y1="83.1619" x2="66.4647" y2="0.0843127" gradientUnits="userSpaceOnUse">
<stop stop-color="white"/>
<stop offset="1" stop-color="#3365C9"/>
</linearGradient>
</defs>
</svg>
