<svg width="87" height="87" viewBox="0 0 87 87" fill="none" xmlns="http://www.w3.org/2000/svg">
<path d="M51.2264 0C50.5973 0 50.0131 0.135449 49.4738 0.315934C50.6197 1.08257 51.2488 2.09759 51.5631 3.24805C51.5859 3.40602 51.6308 3.51895 51.6532 3.67658C51.6756 3.81202 51.6981 3.94747 51.6981 4.08258C51.7881 6.06758 51.1815 6.31562 50.7543 7.4886C50.1028 9.00004 50.2826 10.6241 51.069 11.9322C51.1363 12.0901 51.2264 12.2706 51.3385 12.4286C50.4848 6.72162 55.2256 5.86457 56.1018 4.08258C56.169 2.52645 54.8885 1.48858 53.8775 0.766977C52.9113 0.180144 52.0352 0 51.2264 0ZM58.3709 1.28557C58.2812 1.80451 58.3485 1.66906 58.326 1.93996C58.3036 2.12045 58.3036 2.34597 58.2812 2.52645C58.2363 2.7066 58.1915 2.88708 58.1238 3.06757C58.079 3.24839 58.0117 3.42854 57.9444 3.60902C57.8543 3.78951 57.787 3.94747 57.697 4.12762C57.6297 4.21803 57.5848 4.30844 57.5172 4.39852L57.3826 4.60152C57.2705 4.75949 57.158 4.91745 57.0455 5.05256C56.9106 5.18801 56.7984 5.34598 56.6411 5.45857V5.48109C56.5062 5.59402 56.3716 5.72947 56.2142 5.84206C55.7425 6.20303 55.2032 6.47358 54.7087 6.81204C54.5517 6.92463 54.3944 7.01504 54.2595 7.15049C54.1021 7.26308 53.9672 7.37567 53.8326 7.51146C53.6753 7.64657 53.5631 7.78202 53.4282 7.93998C53.3161 8.07509 53.1811 8.2334 53.0911 8.39103C52.9789 8.54899 52.8668 8.70662 52.7767 8.86459C52.6867 9.04541 52.6194 9.20304 52.5293 9.38318C52.462 9.56401 52.3947 9.72198 52.3499 9.90212C52.2823 10.1051 52.2374 10.2856 52.1925 10.4661C52.1701 10.5565 52.1701 10.6691 52.1477 10.7595C52.1249 10.8496 52.1249 10.94 52.1028 11.0301C52.1028 11.2106 52.08 11.4136 52.08 11.594C52.08 11.7295 52.08 11.8646 52.1028 12C52.1028 12.1805 52.1252 12.361 52.1701 12.564C52.1925 12.7445 52.2374 12.9246 52.2823 13.1051C52.3499 13.286 52.3947 13.4661 52.4624 13.6466C52.5069 13.7592 52.5745 13.8721 52.6194 13.9625L47.4521 11.955C46.5889 11.7082 45.7199 11.4825 44.8458 11.2781L43.4303 10.94C42.0822 10.6691 40.7116 10.4661 39.3413 10.331C39.2965 10.331 39.2737 10.3081 39.2292 10.3081C37.8927 10.1729 36.5504 10.1051 35.2071 10.1051C34.2185 10.1051 33.2299 10.1502 32.2641 10.2177C30.8932 10.3081 29.5229 10.4886 28.152 10.7141C27.8152 10.7595 27.4781 10.8271 27.1413 10.895C26.4446 11.0301 25.7707 11.188 25.1192 11.346L24.1078 11.6166C23.7711 11.752 23.4564 11.91 23.142 12.0451L22.4005 12.3835C22.3556 12.4061 22.3104 12.4061 22.2883 12.4286C22.0633 12.5412 21.8611 12.6316 21.6589 12.7442C21.6047 12.7623 21.552 12.785 21.5016 12.8121C21.2545 12.9246 21.0074 13.0601 20.8052 13.173C20.6479 13.2406 20.4905 13.3307 20.356 13.3982C20.2907 13.4397 20.2232 13.4774 20.1538 13.5111C19.9516 13.6237 19.7493 13.7367 19.5692 13.8496C19.3674 13.9622 19.1877 14.075 19.0302 14.188C18.8729 14.3006 18.7159 14.391 18.581 14.5036C18.5585 14.5262 18.5361 14.5262 18.5133 14.5487C18.3788 14.6391 18.2214 14.7517 18.0865 14.8646L18.0416 14.9096L17.7048 15.1802C17.6596 15.2031 17.6148 15.2481 17.5699 15.2706C17.4578 15.3607 17.3453 15.4736 17.2328 15.564C17.2104 15.6087 17.1655 15.6316 17.1431 15.6541C17.0082 15.7896 16.8732 15.9021 16.7387 16.0376C16.7159 16.0376 16.7159 16.0601 16.6938 16.0826C16.5589 16.1952 16.424 16.3307 16.2894 16.4661C16.2666 16.4886 16.2666 16.5112 16.2442 16.5112C16.132 16.6237 16.0199 16.7367 15.9074 16.8721C15.8626 16.9172 15.7953 16.9622 15.7501 17.0072C15.6379 17.1427 15.503 17.2781 15.3681 17.4132C15.3456 17.4586 15.3008 17.4811 15.278 17.5262C15.0986 17.7067 14.9412 17.8871 14.7615 18.0676L14.6942 18.1352C14.3346 18.5187 13.9526 18.9022 13.5482 19.2406C13.1496 19.5972 12.7293 19.9287 12.2898 20.2331C11.8541 20.5398 11.4043 20.8258 10.942 21.0902C10.4835 21.3428 10.0109 21.5687 9.5265 21.7667C9.04848 21.9704 8.56104 22.1511 8.06585 22.3082C7.12245 22.5112 6.15593 22.8947 5.32501 22.9622C5.1449 22.9622 4.94303 23.0073 4.76325 23.0298C4.57543 23.0725 4.38816 23.1177 4.20149 23.1652L3.66216 23.3682C3.48238 23.4358 3.30294 23.5262 3.12316 23.6163C2.96582 23.7289 2.78604 23.8193 2.62869 23.9322C2.47134 24.0448 2.31434 24.1802 2.17942 24.3157C2.02207 24.4283 1.86472 24.5862 1.73014 24.7217C1.59523 24.8797 1.46031 25.0151 1.34816 25.1727C1.23601 25.3532 1.10109 25.5112 1.01104 25.6913C0.898887 25.8496 0.786399 26.0298 0.69634 26.2103C0.606621 26.4133 0.516902 26.5938 0.449274 26.7971C0.378407 26.9913 0.310994 27.1867 0.247066 27.3833C0.202207 27.5637 0.157348 27.7442 0.134918 27.9247C0.134918 27.9472 0.112148 27.9697 0.112148 27.9923C0.0672891 28.1953 0.0672891 28.4662 0.0448594 28.6013C0.0224297 28.7592 0 28.8947 0 29.0523C0 29.1427 0 29.2553 0.0224297 29.3457C0.0448594 29.5037 0.0672891 29.6391 0.112488 29.7743C0.157348 29.9097 0.202207 30.0448 0.269836 30.1803V30.2028C0.337125 30.3382 0.426844 30.4737 0.516902 30.6088C0.606621 30.7442 0.69668 30.8797 0.809168 31.0148C0.921317 31.1274 1.05589 31.2632 1.19081 31.3758C1.32573 31.5112 1.46065 31.6238 1.61766 31.7367C2.15699 32.2103 2.29191 32.3683 2.98825 32.7292C3.1004 32.7968 3.21288 32.8418 3.3478 32.9097C3.37023 32.9097 3.39266 32.9322 3.41509 32.9322C3.41509 32.9773 3.41509 32.9998 3.43786 33.0448C3.46029 33.2256 3.50515 33.4058 3.55001 33.5863C3.59487 33.7893 3.66216 33.9698 3.72979 34.1277C3.79708 34.2632 3.84193 34.3983 3.90956 34.5337C3.93199 34.5788 3.95442 34.6242 3.97685 34.6463C4.06691 34.8272 4.15697 34.9848 4.24669 35.1427L4.58347 35.6163C4.69562 35.7518 4.83054 35.9097 4.96546 36.0452C5.10038 36.1806 5.23529 36.2932 5.3923 36.4283C5.3923 36.4283 5.41507 36.4512 5.43716 36.4512C5.57208 36.5638 5.707 36.6764 5.84158 36.7668C5.99892 36.8794 6.15627 36.9698 6.33605 37.0602C6.4934 37.1503 6.67317 37.2407 6.85261 37.3082C6.98753 37.3758 7.14488 37.4208 7.30223 37.4662C7.32465 37.4887 7.34708 37.4887 7.39194 37.5112C7.482 37.5338 7.59415 37.5563 7.68421 37.5788C7.61658 38.7968 7.59415 39.9473 7.77393 40.3533C7.97613 40.8043 8.96474 39.4287 9.95335 37.8497C9.81877 39.4058 9.72905 41.2328 9.95335 41.7743C10.2004 42.3383 11.5486 40.5788 12.717 38.6388C28.6468 34.9397 43.1833 45.9923 44.7112 61.6014C44.4189 59.1654 41.431 57.8119 40.0605 58.1503C39.3862 59.8194 38.2406 61.9624 36.3983 63.293C36.5553 61.8044 36.488 60.2705 36.1733 58.7819C35.6792 60.8569 34.713 62.7969 33.3873 64.466C31.2531 64.6239 29.1188 63.5864 27.995 62.0299C27.9053 61.9624 27.8828 61.8269 27.8155 61.7365C27.7479 61.5789 27.6806 61.4209 27.6354 61.263C27.57 61.1117 27.5248 60.9525 27.5008 60.7894C27.4784 60.6314 27.4784 60.4735 27.4784 60.293V59.9549C27.5008 59.7969 27.5457 59.6389 27.5906 59.481C27.6354 59.323 27.6806 59.1654 27.7479 59.0074C27.838 58.8494 27.9053 58.6915 28.0174 58.5338C28.3994 57.4509 28.3994 56.5714 27.7031 56.0524C27.5682 55.964 27.4253 55.8886 27.2762 55.8272C27.1861 55.8044 27.074 55.759 26.9839 55.7368C26.9167 55.714 26.8718 55.6914 26.8042 55.6689C26.6472 55.6239 26.4898 55.5789 26.3325 55.5563C26.1792 55.5116 26.0204 55.4887 25.8608 55.4884C25.7034 55.4659 25.5236 55.4434 25.3663 55.4434C25.2541 55.4434 25.142 55.4659 25.0292 55.4659C24.8497 55.4659 24.6924 55.4888 24.535 55.5338C24.3777 55.5563 24.2203 55.5789 24.0633 55.6239C23.906 55.6689 23.7486 55.7143 23.5913 55.7819C23.4339 55.8494 23.299 55.9173 23.142 55.9849C23.0071 56.0524 22.8725 56.1428 22.7152 56.2104C17.4802 59.6393 20.603 67.669 24.1755 69.9924C22.8273 70.2405 21.4567 70.5339 21.0751 70.827L21.0302 70.872C21.9961 71.4588 23.0071 71.9549 24.0633 72.3834C25.5012 72.857 27.0291 73.2855 27.7031 73.466V73.4885C29.5645 73.8716 31.468 74.0081 33.3648 73.8945C43.3182 73.1951 51.4741 65.5939 52.9568 55.5789C53.0017 55.7819 53.0469 55.9623 53.0918 56.1653C53.1591 56.5714 53.2491 56.9999 53.294 57.4284V57.4513C53.3388 57.6543 53.3613 57.8573 53.384 58.0378V58.1278C53.4065 58.3308 53.4289 58.5338 53.4289 58.7143C53.4513 58.9624 53.4737 59.2104 53.4737 59.4588V59.8194C53.4737 59.9323 53.4962 60.0678 53.4962 60.1804C53.4962 60.3158 53.4737 60.4513 53.4737 60.5864V60.9023C53.4737 61.0603 53.4513 61.1957 53.4513 61.3534C53.4513 61.4438 53.4513 61.5338 53.4285 61.6468C53.4285 61.8044 53.4061 61.9624 53.4061 62.1429C53.3837 62.2104 53.3837 62.2783 53.3837 62.3459C53.3613 62.5263 53.3388 62.6843 53.3161 62.8645C53.3161 62.9324 53.3161 62.9999 53.2936 63.0678C53.2712 63.293 53.2263 63.4963 53.2039 63.7218V63.7669C53.159 63.9699 53.1139 64.1957 53.069 64.3988V64.4663L52.9341 65.0753C52.9341 65.0978 52.9116 65.1429 52.9116 65.1654C52.8668 65.3684 52.8219 65.5714 52.7543 65.7747V65.8423C52.687 66.0678 52.6197 66.2708 52.5749 66.4738C52.5521 66.4963 52.5521 66.5189 52.5521 66.5189L52.3499 67.1954C52.2602 67.4213 52.1929 67.6243 52.1028 67.8498C52.0131 68.075 51.9455 68.3008 51.8557 68.5038C51.7657 68.7294 51.6756 68.9324 51.5863 69.1579H51.5635C51.4738 69.3609 51.3837 69.5864 51.2712 69.7894C51.2532 69.8439 51.2307 69.8967 51.2039 69.9474C51.1815 69.9702 51.1815 69.9924 51.1591 70.0153C49.6988 72.9699 47.5418 75.5639 44.8458 77.594C44.6657 77.7066 44.4862 77.8423 44.3065 77.9774C44.2616 78.0225 44.1943 78.0453 44.1491 78.09C43.9918 78.203 43.8348 78.3159 43.655 78.4285L43.7223 78.5639H43.7447L44.6884 78.4285H44.7109C45.2954 78.3384 45.8793 78.2255 46.4634 78.1129C46.6208 78.0904 46.8006 78.0453 46.9576 78.0003C47.0701 77.9774 47.1598 77.9549 47.2723 77.9324C47.4296 77.9099 47.587 77.8649 47.744 77.842C47.8789 77.797 48.0138 77.7744 48.1484 77.7294C50.3954 77.188 52.5749 76.4435 54.6642 75.5639C51.0918 80.4585 46.3061 84.406 40.7116 87C43.2954 86.8195 45.8793 86.391 48.3734 85.6694C57.4278 82.985 65.0444 76.8724 69.6055 68.6393C68.6799 73.8619 66.616 78.8146 63.5613 83.1429C65.7389 81.7011 67.7508 80.0217 69.5603 78.1354C74.5933 72.8573 77.8959 66.1579 79.0195 58.9624C79.7858 62.5322 80.0055 66.1985 79.6709 69.8348C95.8927 47.1203 81.0191 23.5716 74.7955 17.3685C74.7728 17.3235 74.7507 17.301 74.7507 17.256C74.7279 17.2785 74.7279 17.2785 74.7279 17.301C74.7279 17.2781 74.7279 17.2781 74.7055 17.256C74.7055 17.5265 74.6831 17.7971 74.6606 18.068C74.5933 18.5866 74.5257 19.083 74.436 19.5794C74.3238 20.0755 74.1889 20.5716 74.054 21.068C73.894 21.5563 73.7141 22.0377 73.5147 22.5112C73.3082 22.9787 73.0833 23.4378 72.8408 23.8875C72.5937 24.316 72.3242 24.7671 72.0319 25.1731C71.7429 25.5924 71.4356 25.9988 71.111 26.3911C70.7735 26.7971 70.4143 27.1581 70.0547 27.519C69.8431 27.7133 69.6259 27.9013 69.4032 28.0827C69.2231 28.2406 69.0661 28.3761 68.8863 28.5341C68.4819 28.8497 68.0775 29.1431 67.6282 29.4136C67.2014 29.6842 66.7518 29.9551 66.3028 30.1806C65.8305 30.4061 65.3588 30.6091 64.8871 30.8121C64.4081 30.9934 63.9208 31.1514 63.4268 31.2857C62.93 31.42 62.4277 31.533 61.9212 31.6241C61.4047 31.7146 60.8881 31.7596 60.3936 31.8046C60.0341 31.8271 59.6745 31.8497 59.315 31.8497C58.7984 31.8497 58.2815 31.8046 57.7874 31.7596C57.2705 31.7142 56.7536 31.6467 56.2594 31.5337C55.7429 31.4437 55.2484 31.3085 54.7539 31.1506H54.7315C55.226 31.1052 55.7205 31.0602 56.2146 30.9698C56.7215 30.881 57.2239 30.7681 57.7201 30.6316C58.214 30.4974 58.7012 30.3393 59.1801 30.1581C59.6745 29.9773 60.1462 29.7521 60.5959 29.5262C61.0676 29.301 61.4944 29.0527 61.9437 28.7821C62.3705 28.4887 62.7977 28.1953 63.2021 27.8797C63.6047 27.5656 63.9873 27.2266 64.3477 26.8647C64.7297 26.5262 65.0668 26.1431 65.404 25.7592C65.7324 25.3643 66.0471 24.9581 66.3474 24.5412C66.3922 24.4737 66.4374 24.3836 66.4823 24.316C66.7069 23.9551 66.9316 23.5941 67.1338 23.2331C67.3807 22.7858 67.6057 22.3265 67.808 21.8571C68.0111 21.3852 68.191 20.9036 68.347 20.4139C68.5044 19.9397 68.6169 19.4436 68.729 18.9475C68.8191 18.4289 68.9091 17.9325 68.9536 17.4361C68.9985 16.9175 69.0437 16.3989 69.0437 15.9025C69.0437 15.5415 69.0213 15.1805 68.9988 14.8196C68.954 14.301 68.8867 13.8046 68.8187 13.3081C68.7304 12.7994 68.6181 12.2951 68.4823 11.797C68.3246 11.3235 68.1676 10.8271 67.9878 10.3535C67.8077 9.87994 67.5834 9.40604 67.3587 8.955C67.1113 8.50396 66.8643 8.05257 66.5948 7.62439C66.3079 7.20159 66.0081 6.78777 65.6959 6.38351C65.3576 5.99444 65.0131 5.6109 64.6624 5.23305C64.4732 5.03952 64.2784 4.85157 64.0782 4.66941C63.0716 3.88466 62.0294 3.14693 60.9551 2.45856C60.8101 2.3743 60.66 2.2991 60.5058 2.23338C59.7646 1.75947 59.0683 1.51144 58.3716 1.28591" fill="#E0234E"/>
</svg>
