<svg width="30" height="25" viewBox="0 0 30 25" fill="none" xmlns="http://www.w3.org/2000/svg">
<path fill-rule="evenodd" clip-rule="evenodd" d="M17.9999 6.24999C17.9999 9.69533 15.3089 12.5 11.9999 12.5C8.69246 12.5 5.99997 9.69533 5.99997 6.24999C5.99997 2.80468 8.69096 0 11.9999 0C15.3089 0 17.9999 2.80468 17.9999 6.24999ZM0 23.4375C0 17.9172 4.93498 14.0625 11.9999 14.0625C19.0664 14.0625 23.9999 17.9172 23.9999 23.4375V25H0V23.4375Z" fill="#ABABAB"/>
<path d="M27 24.9999H30V23.4374C30 19.4332 27.4044 16.3053 23.2818 14.8893C25.593 17.0416 27 19.9997 27 23.4374V24.9999Z" fill="#ABABAB"/>
<path d="M19.325 12.3461C21.9984 11.716 24 9.22111 24 6.24968C24 3.06715 21.7038 0.431246 18.7455 0.0476837C20.1482 1.70145 21 3.87352 21 6.24968C21 8.5042 20.2332 10.575 18.9566 12.1938C19.0803 12.2431 19.2032 12.2939 19.325 12.3461Z" fill="#ABABAB"/>
</svg>
