<svg width="93" height="87" viewBox="0 0 93 87" fill="none" xmlns="http://www.w3.org/2000/svg">
<path d="M76.4645 28.1985C75.4748 27.8415 74.4766 27.5107 73.4711 27.2065C73.64 26.4807 73.7955 25.7638 73.9335 25.0594C76.1997 13.493 74.7182 4.17486 69.6581 1.10688C64.8065 -1.83428 56.872 1.23255 48.8588 8.56522C48.069 9.28915 47.2968 10.034 46.5429 10.799C46.0381 10.2903 45.5245 9.79149 45.0022 9.3028C36.6039 1.4625 28.1859 -1.84192 23.1312 1.23484C18.2839 4.18517 16.8486 12.9449 18.8888 23.9066C19.0918 24.9923 19.321 26.0723 19.5761 27.1457C18.3846 27.5017 17.2348 27.8807 16.1344 28.284C6.28803 31.8936 0 37.5502 0 43.4176C0 49.4776 6.75049 55.5559 17.0059 59.2415C17.8374 59.539 18.6757 59.8147 19.5202 60.0685C19.246 61.2246 19.0025 62.3885 18.79 63.5589C16.845 74.3305 18.3639 82.8831 23.198 85.8148C28.191 88.8422 36.5712 85.7307 44.7308 78.2307C45.3924 77.621 46.0395 76.9939 46.6715 76.3503C47.488 77.1786 48.3262 77.9829 49.1854 78.7621C57.0896 85.9133 64.8958 88.801 69.7253 85.8613C74.7135 82.8251 76.3348 73.6372 74.23 62.4588C74.0642 61.5831 73.8782 60.7117 73.6723 59.8454C74.2609 59.6621 74.8385 59.4734 75.4016 59.277C86.0631 55.5631 93 49.5586 93 43.4176C93 37.5288 86.5089 31.834 76.4645 28.1985ZM74.1522 55.3122C73.6432 55.4889 73.1225 55.6602 72.5901 55.8259C71.4131 51.9081 69.8248 47.7423 67.8809 43.4379C69.7358 39.2362 71.2631 35.1236 72.407 31.2313C73.3585 31.5208 74.2816 31.826 75.1716 32.148C83.7777 35.2634 89.0272 39.8688 89.0272 43.4176C89.0272 47.1976 83.3578 52.1048 74.1522 55.3122ZM70.3327 63.2701C71.2634 68.2128 71.396 72.6819 70.7795 76.1757C70.2259 79.3152 69.1121 81.408 67.7345 82.2464C64.8039 84.0302 58.5362 81.7116 51.7767 75.5955C50.9776 74.871 50.1978 74.1234 49.4382 73.3534C52.0589 70.34 54.6778 66.837 57.2339 62.9462C61.7298 62.5268 65.9773 61.8408 69.8292 60.9046C70.0193 61.7098 70.1871 62.4983 70.3327 63.2701ZM31.7057 81.9381C28.8424 83.0012 26.5617 83.0317 25.183 82.196C22.2495 80.4171 21.03 73.5497 22.6935 64.3381C22.8912 63.2496 23.1176 62.1671 23.3724 61.0918C27.1818 61.9779 31.3984 62.6151 35.9049 62.9993C38.4784 66.8064 41.1728 70.3056 43.8884 73.3698C43.3112 73.9569 42.7205 74.529 42.1166 75.0856C38.5082 78.4019 34.8924 80.7548 31.7057 81.9381ZM18.2912 55.2889C13.7564 53.659 10.0113 51.541 7.44436 49.2297C5.13752 47.1529 3.97321 45.0907 3.97321 43.4176C3.97321 39.8569 9.02173 35.3153 17.4422 32.2286C18.4641 31.8543 19.5336 31.501 20.6435 31.1694C21.8074 35.1495 23.3339 39.3111 25.1761 43.5193C23.3099 47.7897 21.7616 52.0177 20.5864 56.0448C19.8156 55.8126 19.0503 55.5605 18.2912 55.2889ZM22.7879 23.1041C21.0402 13.7126 22.2008 6.62825 25.122 4.85018C28.2331 2.95638 35.1129 5.65652 42.3644 12.4265C42.8373 12.869 43.3025 13.3204 43.7598 13.7806C41.0577 16.8314 38.3879 20.3047 35.8373 24.0892C31.4634 24.5155 27.2766 25.2 23.4273 26.1171C23.1901 25.1187 22.9769 24.1138 22.7879 23.1041ZM62.904 33.5201C61.9947 31.8688 61.0518 30.2383 60.0758 28.6297C63.0431 29.0243 65.8861 29.548 68.5559 30.1881C67.7545 32.8894 66.7555 35.7133 65.5795 38.6087C64.72 36.8939 63.828 35.1973 62.904 33.5201ZM46.5447 16.7665C48.3771 18.854 50.2124 21.1843 52.0175 23.713C48.3556 23.5311 44.6877 23.5304 41.0257 23.7107C42.8327 21.2054 44.6836 18.878 46.5447 16.7665ZM30.0804 33.5483C29.168 35.2121 28.2926 36.8981 27.455 38.6048C26.2983 35.7198 25.3084 32.8829 24.5001 30.1434C27.1535 29.5193 29.9831 29.009 32.9314 28.6217C31.9446 30.2401 30.994 31.883 30.0804 33.5483ZM33.0161 58.5104C29.97 58.1529 27.0979 57.6689 24.4452 57.0616C25.2662 54.2732 26.2779 51.376 27.4597 48.4291C28.3006 50.1371 29.1796 51.8241 30.096 53.4887C31.0384 55.1999 32.0142 56.876 33.0161 58.5104ZM46.6544 70.3629C44.7711 68.227 42.893 65.8637 41.0588 63.3221C42.8396 63.3954 44.6549 63.4329 46.5 63.4329C48.3956 63.4329 50.2694 63.3882 52.1138 63.3018C50.3028 65.8893 48.4744 68.256 46.6544 70.3629ZM65.617 48.2786C66.8601 51.258 67.9078 54.1399 68.7397 56.8806C66.0434 57.5276 63.1321 58.0486 60.0646 58.4356C61.0476 56.7971 61.9994 55.1383 62.9196 53.46C63.8552 51.7542 64.7545 50.0266 65.617 48.2786ZM59.4782 51.3729C58.0694 53.946 56.5815 56.4702 55.0168 58.9417C52.1823 59.1529 49.3416 59.2577 46.5 59.256C43.6057 59.256 40.7907 59.1613 38.0799 58.9764C36.4742 56.5108 34.9579 53.9821 33.5341 51.3958C32.1169 48.8234 30.7936 46.1952 29.5664 43.517C30.7905 40.8381 32.1102 38.2087 33.5225 35.6343L33.5221 35.6346C34.9338 33.0594 36.438 30.5416 38.0316 28.0865C40.7972 27.8665 43.6333 27.7519 46.4996 27.7519C49.379 27.7519 52.2191 27.8677 54.9841 28.0892C56.5616 30.5406 58.0562 33.0498 59.4651 35.6121C60.882 38.181 62.2191 40.7976 63.4743 43.4578C62.2319 46.1451 60.8991 48.7852 59.4782 51.3729ZM67.6739 4.72528C70.7879 6.61374 71.9991 14.2291 70.0424 24.2157C69.917 24.8533 69.7777 25.5014 69.6247 26.1599C65.7659 25.2233 61.5762 24.527 57.1896 24.0942C54.6342 20.268 51.9863 16.7894 49.3281 13.778C50.0248 13.0719 50.738 12.3842 51.4671 11.7153C58.3332 5.43307 64.7502 2.95256 67.6739 4.72528ZM46.5 34.6858C51.0864 34.6858 54.8046 38.5953 54.8046 43.4176C54.8046 48.24 51.0864 52.1495 46.5 52.1495C41.9136 52.1495 38.1954 48.24 38.1954 43.4176C38.1954 38.5953 41.9136 34.6858 46.5 34.6858Z" fill="#00D8FF"/>
</svg>
