<svg width="15" height="13" viewBox="0 0 15 13" fill="none" xmlns="http://www.w3.org/2000/svg">
<path d="M12.9002 4.38742H2.1678M12.9002 4.38742C13.1374 4.38742 13.3649 4.29336 13.5326 4.12594C13.7003 3.95852 13.7946 3.73144 13.7946 3.49467V1.70916C13.7946 1.47239 13.7003 1.24531 13.5326 1.07789C13.3649 0.910464 13.1374 0.816406 12.9002 0.816406H2.1678C1.9306 0.816406 1.70312 0.910464 1.53539 1.07789C1.36767 1.24531 1.27344 1.47239 1.27344 1.70916V3.49467C1.27344 3.73144 1.36767 3.95852 1.53539 4.12594C1.70312 4.29336 1.9306 4.38742 2.1678 4.38742M12.9002 4.38742C13.1374 4.38742 13.3649 4.48148 13.5326 4.6489C13.7003 4.81633 13.7946 5.0434 13.7946 5.28017V7.06568C13.7946 7.30245 13.7003 7.52953 13.5326 7.69695C13.3649 7.86438 13.1374 7.95844 12.9002 7.95844M2.1678 4.38742C1.9306 4.38742 1.70312 4.48148 1.53539 4.6489C1.36767 4.81633 1.27344 5.0434 1.27344 5.28017V7.06568C1.27344 7.30245 1.36767 7.52953 1.53539 7.69695C1.70312 7.86438 1.9306 7.95844 2.1678 7.95844M12.9002 7.95844H2.1678M12.9002 7.95844C13.1374 7.95844 13.3649 8.05249 13.5326 8.21992C13.7003 8.38734 13.7946 8.61442 13.7946 8.85119V10.6367C13.7946 10.8735 13.7003 11.1005 13.5326 11.268C13.3649 11.4354 13.1374 11.5294 12.9002 11.5294H2.1678C1.9306 11.5294 1.70312 11.4354 1.53539 11.268C1.36767 11.1005 1.27344 10.8735 1.27344 10.6367V8.85119C1.27344 8.61442 1.36767 8.38734 1.53539 8.21992C1.70312 8.05249 1.9306 7.95844 2.1678 7.95844M2.61499 2.60191H5.29809M2.61499 6.17293H5.29809M2.61499 9.74394H5.29809" stroke="white"/>
</svg>
