<svg width="89" height="69" viewBox="0 0 89 69" fill="none" xmlns="http://www.w3.org/2000/svg">
<path d="M44.4338 47.1862L58.5366 60.9063C63.7566 65.9871 66.371 68.5294 69.1071 67.9078C71.8389 67.2899 72.7785 63.9474 74.6534 57.2586L85.05 20.1556C87.9427 9.85247 89.3869 4.70465 86.1766 2.16238C82.9663 -0.379886 77.4026 1.511 66.2753 5.28904L14.6579 22.8318C5.75779 25.858 1.30772 27.3692 1.02497 29.9673C0.991676 30.2321 0.991676 30.4991 1.02497 30.7639C1.29902 33.3657 5.74039 34.8881 14.6318 37.9366C18.6556 39.3175 20.6697 40.0098 22.1139 41.3312C22.2763 41.4801 22.4329 41.6339 22.5837 41.7928C23.9148 43.2072 24.4803 45.0683 25.6156 48.7756L27.7428 55.725C28.8434 59.3355 29.3958 61.1445 30.8444 61.3902C32.2929 61.6359 33.5501 60.1395 36.0687 57.1432L44.4338 47.1862ZM44.4338 47.1862L43.0549 45.9579C41.4802 44.5509 40.6928 43.8511 40.6928 42.9802C40.6928 42.1092 41.4758 41.4057 43.0549 40.0024L58.5975 26.1409" stroke="white" stroke-width="1.5" stroke-linecap="round" stroke-linejoin="round"/>
</svg>
