<svg width="10" height="10" viewBox="0 0 10 10" fill="none" xmlns="http://www.w3.org/2000/svg">
<path d="M9.90977 9.16807C9.24467 8.0203 8.21973 7.19729 7.0236 6.80715C7.61526 6.45557 8.07494 5.91984 8.33205 5.28223C8.58917 4.64462 8.62949 3.9404 8.44684 3.2777C8.26419 2.61501 7.86866 2.03048 7.32098 1.61389C6.77331 1.1973 6.10379 0.97168 5.41523 0.97168C4.72667 0.97168 4.05714 1.1973 3.50947 1.61389C2.9618 2.03048 2.56627 2.61501 2.38361 3.2777C2.20096 3.9404 2.24129 4.64462 2.4984 5.28223C2.75551 5.91984 3.21519 6.45557 3.80685 6.80715C2.61073 7.19686 1.58578 8.01987 0.920687 9.16807C0.896297 9.20776 0.880119 9.25194 0.873108 9.29798C0.866097 9.34402 0.868395 9.39099 0.879866 9.43613C0.891338 9.48127 0.91175 9.52366 0.939899 9.56079C0.968048 9.59793 1.00336 9.62907 1.04376 9.65236C1.08416 9.67565 1.12882 9.69063 1.17511 9.69641C1.22141 9.7022 1.26839 9.69867 1.31329 9.68603C1.3582 9.6734 1.40011 9.65191 1.43656 9.62285C1.47301 9.59378 1.50326 9.55772 1.52552 9.5168C2.34827 8.09746 3.80249 7.25004 5.41523 7.25004C7.02797 7.25004 8.48219 8.09746 9.30493 9.5168C9.3272 9.55772 9.35745 9.59378 9.3939 9.62285C9.43035 9.65191 9.47226 9.6734 9.51716 9.68603C9.56206 9.69867 9.60905 9.7022 9.65534 9.69641C9.70163 9.69063 9.74629 9.67565 9.78669 9.65236C9.82709 9.62907 9.86241 9.59793 9.89056 9.56079C9.9187 9.52366 9.93912 9.48127 9.95059 9.43613C9.96206 9.39099 9.96436 9.34402 9.95735 9.29798C9.95033 9.25194 9.93416 9.20776 9.90977 9.16807ZM2.96969 4.11145C2.96969 3.62864 3.11312 3.15668 3.38184 2.75524C3.65056 2.3538 4.0325 2.04091 4.47936 1.85615C4.92622 1.67139 5.41794 1.62304 5.89233 1.71723C6.36671 1.81143 6.80247 2.04392 7.14448 2.38532C7.48649 2.72671 7.71941 3.16168 7.81377 3.63521C7.90813 4.10874 7.8597 4.59957 7.6746 5.04563C7.48951 5.49169 7.17606 5.87294 6.77389 6.14117C6.37173 6.40941 5.89891 6.55258 5.41523 6.55258C4.76684 6.55188 4.14522 6.29447 3.68674 5.83682C3.22826 5.37917 2.97039 4.75867 2.96969 4.11145Z" fill="white"/>
</svg>
